<?xml version="1.0" encoding="UTF-8"?><svg id="b" xmlns="http://www.w3.org/2000/svg" width="60" height="65.183" xmlns:xlink="http://www.w3.org/1999/xlink" viewBox="0 0 60 65.183"><defs><style>.f{fill:url(#d);}.g{fill:url(#e);}</style><linearGradient id="d" x1="0" y1="37.592" x2="60" y2="37.592" gradientUnits="userSpaceOnUse"><stop offset="0" stop-color="#f98a08"/><stop offset="1" stop-color="#fd3714"/></linearGradient><linearGradient id="e" x1="16.64" y1="27" x2="43.36" y2="27" xlink:href="#d"/></defs><g id="c"><path class="f" d="M43.959,11.006h0c-.525.909-.253,2.062.616,2.651,7.218,4.895,11.848,13.32,11.396,22.798-.625,13.102-11.217,23.862-24.308,24.676-15.112.939-27.661-11.039-27.661-25.948,0-8.962,4.538-16.86,11.438-21.534.864-.585,1.126-1.738.604-2.642h0c-.58-1.005-1.896-1.314-2.857-.663C4.711,16.092-.672,26.055.068,37.226c.937,14.146,13.807,26.987,27.955,27.894,17.464,1.12,31.977-12.714,31.977-29.937,0-10.34-5.235-19.451-13.195-24.845-.957-.648-2.268-.333-2.846.668Z"/><path class="g" d="M43.243,23.362l-16.757,30.163c-.497.894-1.863.426-1.708-.585l3.059-19.884c.085-.555-.344-1.056-.906-1.056h-9.373c-.699,0-1.141-.751-.802-1.362L33.514.475c.497-.894,1.863-.426,1.708.585l-3.059,19.884c-.085.555.344,1.056.906,1.056h9.373c.699,0,1.141.751.802,1.362Z"/></g></svg>